<svg width="95" height="23" viewBox="0 0 95 23" fill="none" xmlns="http://www.w3.org/2000/svg">
<path d="M56.7894 22.8691C53.2665 22.8691 51.807 18.7406 50.3475 14.7128C49.2403 11.692 48.0325 8.26839 46.271 8.26839C44.5096 8.26839 43.503 9.72846 42.0939 12.1955C40.6847 14.6121 39.0743 17.3309 35.7527 17.3309C32.2298 17.3309 30.72 13.2024 29.3108 9.17464C28.2036 6.1538 26.9957 2.73019 25.2343 2.73019C23.4728 2.73019 22.265 6.1538 21.1578 9.17464C19.6983 13.1521 18.2388 17.3309 14.7159 17.3309C11.344 17.3309 9.78387 14.6121 8.37471 12.1955C6.96555 9.7788 5.959 8.26839 4.19756 8.26839C3.49298 8.26839 2.93938 7.71457 2.93938 7.00971C2.93938 6.30484 3.49298 5.75102 4.19756 5.75102C7.56947 5.75102 9.12961 8.46978 10.5388 10.8864C11.9479 13.3031 12.9545 14.8135 14.7159 14.8135C16.4774 14.8135 17.6852 11.3899 18.7924 8.36908C20.2519 4.39165 21.7114 0.21283 25.2343 0.21283C28.7572 0.21283 30.2167 4.3413 31.6762 8.36908C32.7834 11.3899 33.9912 14.8135 35.7527 14.8135C37.5141 14.8135 38.5207 13.3535 39.9298 10.8864C41.339 8.46978 42.9494 5.75102 46.271 5.75102C49.7939 5.75102 51.2534 9.8795 52.7129 13.9073C53.8201 16.9281 55.028 20.3517 56.7894 20.3517C58.5509 20.3517 59.7587 16.9281 60.8659 13.9073C62.3254 9.92984 63.7849 5.75102 67.3078 5.75102C70.6797 5.75102 72.2398 8.46978 73.649 10.8864C75.0582 13.3031 76.0647 14.8135 77.8261 14.8135C79.5876 14.8135 80.5941 13.3535 82.0033 10.8864C83.4125 8.46978 85.0229 5.75102 88.3445 5.75102C89.0491 5.75102 89.6027 6.30484 89.6027 7.00971C89.6027 7.71457 89.0491 8.26839 88.3445 8.26839C86.5831 8.26839 85.5765 9.72846 84.1674 12.1955C82.7582 14.6121 81.1477 17.3309 77.8261 17.3309C74.5045 17.3309 72.8941 14.6121 71.4849 12.1955C70.0758 9.7788 69.0692 8.26839 67.3078 8.26839C65.5463 8.26839 64.3385 11.692 63.2313 14.7128C61.7718 18.7406 60.3123 22.8691 56.7894 22.8691Z" fill="white"/>
<path d="M94.0818 7.0097C94.0818 9.27532 92.2197 11.1382 89.9549 11.1382C87.6902 11.1382 85.8281 9.27532 85.8281 7.0097C85.8281 4.74407 87.6902 2.88123 89.9549 2.88123C92.2197 2.88123 94.0818 4.74407 94.0818 7.0097Z" fill="#B02854"/>
<path d="M8.42503 7.0097C8.42503 9.27532 6.56293 11.1382 4.29821 11.1382C2.03349 11.1382 0.171387 9.27532 0.171387 7.0097C0.171387 4.74407 2.03349 2.88123 4.29821 2.88123C6.61326 2.88123 8.42503 4.74407 8.42503 7.0097Z" fill="#B02854"/>
</svg>
