<svg width="63" height="55" viewBox="0 0 63 55" fill="none" xmlns="http://www.w3.org/2000/svg">
<path d="M31.6369 54.2091C31.6053 54.228 31.5758 54.2456 31.5485 54.2619C31.5209 54.2452 31.4911 54.2272 31.4591 54.2078C31.2348 54.0714 30.9049 53.8686 30.4845 53.6039C29.6437 53.0744 28.4412 52.2974 26.9977 51.3091C24.1098 49.3318 20.2616 46.5118 16.4157 43.1388C12.5676 39.7639 8.73547 35.8471 5.86871 31.6784C2.99882 27.5052 1.12524 23.1214 1.12524 18.8018C1.12524 9.14316 8.46212 1.36861 17.4465 1.36863L17.4507 1.3686C22.9518 1.32286 28.1092 4.27243 31.1197 9.21609L31.5442 9.91328L31.9724 9.21831C35.0041 4.29767 40.1494 1.35468 45.6448 1.36861C54.612 1.41553 61.9236 9.16362 61.968 18.8032C61.9676 23.1896 60.093 27.6063 57.2242 31.7902C54.3578 35.9706 50.5262 39.8787 46.6786 43.2369C42.8331 46.5931 38.9853 49.3882 36.0977 51.3448C34.6543 52.3228 33.452 53.0905 32.6113 53.6132C32.191 53.8746 31.8612 54.0746 31.6369 54.2091Z" fill="#05D8E8" stroke="white"/>
</svg>
